<svg xmlns="http://www.w3.org/2000/svg" viewBox="185 275 1215 460" width="608" height="230">
<g transform="translate(0.000000,1024.000000) scale(0.100000,-0.100000)" fill="#111111" stroke="none">
<path d="M3716 7299 c-401 -42 -751 -235 -981 -541 -79 -104 -177 -291 -215
-408 -24 -76 -60 -246 -60 -287 0 -39 -8 -47 -62 -71 -73 -32 -115 -69 -143
-126 -25 -51 -25 -53 -26 -336 -1 -314 1 -325 63 -395 33 -39 114 -85 148 -85
14 0 26 -13 41 -45 42 -89 109 -125 234 -125 54 0 85 -4 85 -11 0 -29 87 -228
134 -306 l54 -88 -33 -8 c-53 -14 -70 -43 -110 -189 -21 -75 -40 -140 -44
-145 -3 -5 -67 -35 -142 -66 -166 -68 -347 -152 -474 -219 -72 -37 -97 -56
-101 -74 -7 -28 19 -64 46 -64 9 0 100 40 202 89 184 89 417 191 436 191 5 0
15 -6 21 -14 6 -7 144 -75 307 -151 l297 -138 18 24 c25 32 24 51 -3 77 -13
11 -135 73 -271 138 -178 84 -246 121 -243 131 3 8 22 79 43 158 l36 144 46
10 45 10 83 -79 c231 -222 496 -314 808 -281 123 14 218 42 333 100 98 50 136
78 245 181 l88 83 42 -9 41 -9 43 -150 c23 -82 42 -156 43 -163 0 -7 -112 -68
-252 -136 -139 -68 -264 -132 -277 -143 l-25 -20 21 -34 c13 -23 26 -33 38
-31 28 5 531 247 576 277 21 14 43 25 48 25 17 0 294 -121 460 -201 90 -43
174 -79 187 -79 29 0 48 33 40 67 -6 20 -40 41 -199 119 -106 51 -266 125
-357 162 l-165 69 -43 149 c-26 90 -50 157 -63 169 -16 17 -36 21 -120 23
l-100 4 -97 -94 c-110 -105 -218 -173 -332 -212 -155 -52 -351 -58 -516 -16
-254 64 -504 284 -635 558 -65 134 -119 337 -119 443 l0 39 50 -25 c28 -14 94
-38 148 -52 85 -24 116 -27 247 -28 149 0 151 0 215 32 77 38 141 100 224 219
34 48 69 92 78 98 29 18 64 -9 121 -96 86 -130 128 -173 215 -215 71 -36 83
-38 182 -41 154 -5 318 27 473 93 17 7 18 4 12 -51 -18 -148 -45 -244 -112
-391 -9 -20 71 -16 95 5 23 19 72 107 72 128 0 11 18 14 70 14 39 0 70 -2 70
-5 0 -3 -13 -32 -30 -64 -34 -68 -76 -113 -134 -144 -39 -21 -55 -22 -297 -25
l-257 -3 -9 28 c-54 154 -283 181 -378 45 -27 -39 -30 -52 -30 -116 0 -64 4
-78 29 -114 55 -79 174 -114 264 -76 45 18 97 67 113 105 l11 29 259 0 c316 0
336 5 440 109 72 72 109 135 136 233 10 34 32 82 50 106 18 24 33 48 33 53 0
5 11 9 25 9 42 0 113 40 154 86 64 73 71 112 71 388 0 267 -7 311 -59 383 -25
34 -100 82 -168 107 0 1 -10 56 -22 124 -51 301 -177 547 -386 757 -240 241
-525 371 -885 404 -126 12 -121 12 -234 0z m388 -133 c39 -9 73 -19 76 -23 11
-13 -36 -242 -53 -261 -14 -15 -42 -17 -288 -16 -239 1 -274 3 -284 18 -7 8
-20 62 -29 119 -9 57 -19 113 -22 124 -6 23 16 30 161 53 85 13 356 4 439 -14z
m-686 -178 c13 -72 32 -139 45 -162 40 -70 44 -71 386 -70 284 1 305 3 329 21
44 32 69 91 91 212 11 62 22 115 24 118 8 7 120 -42 195 -86 284 -166 480
-408 582 -722 57 -174 61 -225 58 -751 l-3 -476 -25 -27 c-36 -40 -77 -54
-133 -48 l-48 6 6 48 c4 27 11 93 15 147 5 62 18 124 35 171 26 72 26 80 23
250 -4 202 -15 238 -88 311 -71 71 -162 100 -420 135 -447 59 -1204 39 -1522
-40 -134 -33 -220 -101 -258 -203 -20 -52 -21 -73 -18 -242 3 -177 4 -187 30
-243 24 -50 28 -75 32 -171 3 -62 8 -124 11 -138 6 -24 4 -25 -46 -31 -67 -8
-115 13 -141 63 -17 32 -18 68 -18 495 0 508 5 566 61 743 100 310 307 568
579 721 76 42 176 90 190 91 4 0 16 -55 28 -122z m947 -1022 c169 -18 306 -40
380 -61 50 -14 109 -63 134 -112 17 -33 15 -355 -3 -397 -35 -84 -115 -136
-277 -178 -65 -17 -114 -22 -219 -22 -130 -1 -137 0 -182 26 -65 39 -100 76
-178 194 -61 90 -74 104 -114 119 -54 21 -117 16 -155 -12 -14 -11 -56 -64
-93 -119 -125 -187 -185 -220 -377 -211 -173 8 -345 60 -415 125 -57 54 -66
89 -66 281 0 167 1 176 24 216 38 65 96 90 272 119 128 21 223 30 499 50 117
9 630 -4 770 -18z m-1915 -436 c0 -203 -4 -370 -9 -370 -21 0 -78 49 -93 80
-16 31 -18 67 -18 288 0 285 4 303 69 348 19 13 39 24 43 24 5 0 8 -166 8
-370z m2890 290 c19 -36 20 -58 20 -297 0 -240 -1 -260 -20 -291 -18 -29 -73
-72 -92 -72 -5 0 -8 167 -8 370 l0 370 40 -20 c26 -13 47 -34 60 -60z m-1167
-1160 c43 -49 33 -120 -23 -153 -74 -44 -160 1 -160 83 0 51 12 75 48 95 42
24 101 13 135 -25z"/>
<path d="M6659 5916 c-208 -44 -361 -162 -453 -350 -55 -113 -70 -180 -70
-321 0 -189 54 -333 174 -459 118 -123 268 -192 445 -203 328 -20 597 176 682
497 23 88 22 253 -1 340 -66 238 -221 410 -429 475 -100 32 -252 41 -348 21z
m215 -176 c131 -21 257 -111 319 -227 34 -64 67 -190 67 -257 0 -76 -26 -183
-61 -254 -133 -270 -520 -327 -735 -106 -88 90 -134 215 -134 364 0 312 246
529 544 480z"/>
<path d="M8041 5550 c-68 -15 -132 -50 -183 -102 l-47 -48 -3 67 -3 68 -90 0
-90 0 -3 -647 -2 -648 95 0 95 0 0 246 0 247 50 -47 c58 -55 117 -83 197 -96
115 -19 263 25 351 104 177 161 200 487 48 694 -91 123 -268 192 -415 162z
m143 -180 c102 -39 172 -142 183 -270 16 -194 -95 -339 -269 -348 -61 -4 -76
-1 -132 27 -97 47 -151 133 -163 253 -22 240 175 415 381 338z"/>
<path d="M9045 5546 c-139 -32 -250 -117 -310 -240 -44 -89 -59 -168 -52 -276
7 -102 34 -186 85 -259 121 -177 391 -240 601 -141 56 27 171 121 171 141 0 9
-114 89 -126 89 -3 0 -25 -16 -47 -36 -109 -99 -277 -110 -394 -25 -45 33
-103 135 -103 183 l0 28 350 0 350 0 0 78 c0 211 -110 382 -283 442 -74 26
-170 32 -242 16z m194 -172 c70 -29 131 -107 146 -187 l7 -37 -261 0 c-290 0
-272 -5 -246 71 51 144 210 213 354 153z"/>
<path d="M10131 5550 c-70 -15 -127 -48 -175 -101 l-45 -50 -3 68 -3 68 -87 3
-87 3 -3 -318 c-2 -175 -2 -387 0 -470 l3 -153 90 0 89 0 0 286 c0 178 4 302
11 330 18 69 87 140 156 160 104 30 203 -4 251 -86 l27 -45 5 -320 5 -320 93
-3 92 -3 0 309 c0 180 -5 333 -11 367 -24 132 -105 229 -219 263 -53 16 -140
22 -189 12z"/>
<path d="M3370 3998 c0 -14 18 -41 132 -196 90 -122 126 -189 160 -294 17 -54
34 -98 39 -98 12 0 20 152 11 208 -7 37 -23 73 -58 124 -54 78 -164 206 -205
237 -35 27 -79 38 -79 19z"/>
<path d="M4219 3950 c-59 -45 -100 -93 -198 -231 -38 -54 -55 -148 -45 -241
11 -94 31 -86 59 22 24 97 95 232 184 351 43 59 84 116 90 128 21 38 -20 25
-90 -29z"/>
<path d="M3811 3704 c-19 -25 -21 -40 -21 -205 0 -148 3 -180 16 -193 19 -19
58 -21 72 -3 6 7 12 93 14 203 2 151 0 194 -11 207 -20 25 -47 21 -70 -9z"/>
</g>
<g transform="translate(0.000000,1024.000000) scale(0.100000,-0.100000)" fill="#33A66F" stroke="none">
<path d="M10835 5898 c-3 -7 -4 -301 -3 -653 l3 -640 423 -3 423 -2 -3 92 -3
93 -295 2 c-162 1 -305 2 -317 2 l-23 1 0 560 0 560 -100 0 c-71 0 -102 -4
-105 -12z"/>
<path d="M11847 5904 c-4 -4 -7 -299 -7 -656 l0 -648 420 0 420 0 0 90 0 90
-72 2 c-40 1 -179 2 -308 2 -129 1 -241 5 -247 9 -10 6 -12 131 -12 560 l2
552 -95 3 c-52 1 -97 0 -101 -4z"/>
<path d="M12840 5256 l0 -656 100 0 100 0 0 239 0 239 218 4 c234 5 272 12
357 67 124 80 186 225 170 395 -6 65 -10 80 -42 153 -32 75 -128 153 -226 186
-56 19 -92 21 -369 25 l-308 4 0 -656z m576 459 c108 -25 164 -102 164 -225 0
-79 -15 -124 -54 -163 -58 -58 -75 -62 -288 -65 l-198 -4 0 231 0 230 23 4
c45 10 303 4 353 -8z"/>
</g>
</svg>